<svg width="110" height="55" viewBox="0 0 110 55" fill="none" xmlns="http://www.w3.org/2000/svg">
<g clip-path="url(#clip0_86_4772)">
<path d="M40.0437 0H35.4443C34.7367 0 34.0291 0.555226 33.8683 1.27375L25.8595 34.5873C25.6987 35.2732 26.1168 35.861 26.8244 35.861H31.4238C32.1314 35.861 32.8391 35.3058 32.9999 34.5873L41.0408 1.27375C41.2016 0.587886 40.7835 0 40.0759 0H40.0437Z" fill="#0F8A2A"/>
<path d="M49.4358 10.2227H44.8364C44.1288 10.2227 43.4212 10.7779 43.2603 11.4964L37.7282 34.5546C37.5674 35.2405 37.9855 35.8284 38.6931 35.8284H43.2925C44.0001 35.8284 44.7077 35.2731 44.8685 34.5546L50.4007 11.4964C50.5615 10.8105 50.1434 10.2227 49.4358 10.2227Z" fill="#0F8A2A"/>
<path d="M54.4852 23.7441C55.7074 24.6586 59.4384 25.9323 59.4384 25.9323C59.7922 26.063 60.4033 26.2589 60.7571 26.3569C60.7571 26.3569 62.1401 26.7815 62.6548 27.0428C63.1372 27.3041 63.3945 27.6633 63.3945 28.0879C63.3945 29.7536 62.1401 30.6028 59.6635 30.6028C57.1869 30.6028 51.4618 29.7862 51.4618 29.7862C51.0758 29.7209 50.6898 29.9822 50.5933 30.3741L49.6284 34.0321C49.5319 34.424 49.7249 34.8159 50.0466 34.9139C50.3682 35.0119 50.9472 35.2079 51.301 35.3385C51.301 35.3385 52.5232 35.7304 54.0992 36.0244C55.6431 36.3183 57.1869 36.4489 58.7308 36.4489C62.3653 36.4489 65.2922 35.6324 67.4793 33.9994C69.6665 32.3664 70.76 29.9495 70.76 26.7162C70.76 24.9199 70.2454 23.6134 69.184 22.7969C68.1226 21.9804 66.5787 21.2946 64.4881 20.674C62.3974 20.0535 61.1109 19.5962 60.5963 19.3023C60.0817 19.0083 59.8565 18.5184 59.8565 17.8979C59.8565 17.2773 60.146 16.7221 60.7249 16.2322C61.3039 15.7423 62.108 15.5137 63.1694 15.5137C65.4852 15.5137 71.4676 16.2322 71.4676 16.2322C71.8536 16.2649 72.2395 16.0036 72.336 15.6443L73.2688 11.9537C73.3653 11.5618 73.1723 11.1699 72.8507 11.0719C72.529 10.9739 71.9501 10.7779 71.5963 10.68C71.5963 10.68 70.3419 10.3207 68.7337 10.0594C67.1255 9.79812 65.4852 9.66748 63.8126 9.66748C60.7571 9.66748 58.1197 10.5493 55.9647 12.3456C53.7776 14.1419 52.7162 16.6241 52.7162 19.7922C52.7162 21.4905 53.3273 22.7969 54.5495 23.7441H54.4852Z" fill="#0F8A2A"/>
<path d="M81.535 36.4489C81.535 36.4489 81.8245 36.4489 81.921 36.4489H81.8245C81.8245 36.4489 87.4532 36.8082 90.7339 34.9792C90.8304 34.9139 90.9269 34.8485 91.0233 34.7832C91.4736 35.6324 91.6666 35.9917 92.2456 37.1021C93.2105 38.9964 94.5935 38.3432 94.8187 37.3307C94.883 36.9715 97.1345 26.8794 97.1345 26.8794C97.6491 24.7238 98.9356 19.4329 99.8362 15.7749C100.962 11.0718 98.4532 10.8759 98.4532 10.8759C93.6286 10.0593 89.9941 9.63477 87.5497 9.63477C85.2339 9.63477 83.1754 10.2227 81.3421 11.3658C79.5087 12.5415 78.0935 14.0113 77.0643 15.8076C75.0058 19.4329 73.9766 23.1888 73.9766 27.108C73.9766 29.9495 74.5877 32.2031 75.8099 33.9014C77.0321 35.5997 78.9298 36.4489 81.535 36.4489ZM84.2368 17.4406C85.266 16.1015 86.4561 15.4483 87.807 15.4483C88.7397 15.4483 93.8538 15.2523 92.728 17.7998L90.2836 26.0302C90.2836 26.0302 89.8011 27.8592 87.4532 29.6229C86.4239 30.4067 84.5906 30.6027 83.7543 30.6027C82.9181 30.6027 82.307 30.3088 81.921 29.7535C81.535 29.1983 81.3421 28.3165 81.3421 27.108C81.3421 23.1888 82.307 19.9554 84.269 17.4406H84.2368Z" fill="#0F8A2A"/>
<path d="M64.3917 5.02966C65.0671 5.02966 65.6139 4.47443 65.6139 3.82123C65.6139 3.16802 65.0671 2.61279 64.3917 2.61279C63.7162 2.61279 63.1694 3.16802 63.1694 3.82123C63.1694 4.47443 63.7162 5.02966 64.3917 5.02966Z" fill="#BFD730"/>
<path d="M57.6376 6.33609C59.0207 6.33609 60.1786 5.19298 60.1786 3.82124C60.1786 2.44951 59.0528 1.3064 57.6376 1.3064C56.2224 1.3064 55.0967 2.44951 55.0967 3.82124C55.0967 5.19298 56.2224 6.33609 57.6376 6.33609Z" fill="#BFD730"/>
<path d="M48.8246 7.64252C50.9384 7.64252 52.652 5.93168 52.652 3.82126C52.652 1.71084 50.9384 0 48.8246 0C46.7107 0 44.9971 1.71084 44.9971 3.82126C44.9971 5.93168 46.7107 7.64252 48.8246 7.64252Z" fill="#BFD730"/>
<path d="M23.0936 12.9335C21.0994 10.6799 17.7222 9.8634 14.538 9.8634C10.4211 9.8634 6.97953 11.4311 4.18129 14.5665C1.38304 17.7019 0 21.4578 0 25.769C0 29.133 1.02924 31.8111 3.11988 33.8361C4.0848 34.7832 5.24269 35.5018 6.52924 35.9917C7.52632 36.4163 8.68421 36.7102 10.0029 36.7429C15.7924 36.9062 19.1696 35.4038 19.1696 35.4038C19.5556 35.3385 19.9094 34.9465 19.9737 34.5546L20.5526 30.8967C20.617 30.5047 20.3597 30.2435 19.9737 30.2761C19.5877 30.3088 18.9766 30.3741 18.5906 30.4394C18.5906 30.4394 14.2164 30.8967 11.7398 30.8967C10.6462 30.8967 9.61696 30.7007 8.87719 30.2108C8.33041 29.8189 8.00877 29.5249 7.7193 28.9044C7.46199 28.2185 7.33333 27.4673 7.33333 26.5855C7.33333 26.2262 7.33333 25.8343 7.39766 25.5404C7.42983 25.4424 7.52632 25.3117 7.78363 25.2138H22.8363C22.8363 25.2138 23.3509 25.2138 23.6082 24.8872C23.8655 24.5606 24.2515 22.5683 24.4123 21.8171C24.6696 20.7393 24.9912 19.2696 24.9912 17.6366C24.9912 15.7749 24.348 14.6318 24.2193 14.3705C23.9298 13.9786 23.576 13.4887 23.1257 12.9988L23.0936 12.9335ZM18.076 15.4483C18.7193 16.1015 18.076 17.7672 16.7573 19.1389C15.9211 19.9881 14.924 20.576 14.1199 20.7066C14.7953 20.1187 15.2456 18.7144 15.2456 17.1793C15.2456 16.8201 15.2456 16.4608 15.1813 16.1342C16.3713 15.2197 17.5614 14.9584 18.076 15.4483ZM13.3801 13.6193C14.2807 13.6193 15.0205 15.2524 15.0205 17.1793C15.0205 18.2571 14.7953 19.2696 14.4094 19.9554C14.4737 19.041 13.8304 17.7345 12.769 16.6568C12.4795 16.3628 12.1901 16.1015 11.8684 15.8729C12.1257 14.5338 12.7368 13.6193 13.3801 13.6193ZM8.90936 15.4483C9.19883 15.1544 9.74562 15.1217 10.4211 15.3503C11.1287 15.6116 11.9006 16.1015 12.576 16.7874C13.3158 17.5386 13.8626 18.4204 14.0556 19.1716C13.4766 18.5184 12.1579 18.0611 10.614 18.0611C10.2281 18.0611 9.80994 18.0938 9.42398 18.1591C8.65205 17.016 8.4269 15.9382 8.90936 15.4483ZM10.6462 21.6538C8.74854 21.6538 7.14035 20.9026 7.14035 19.9881C7.14035 19.0736 8.74854 18.3224 10.6462 18.3224C12.5439 18.3224 14.152 19.0736 14.152 19.9881C14.152 20.9026 12.5439 21.6538 10.6462 21.6538ZM16.7895 21.6538C15.6959 21.6538 14.6988 21.4252 14.0234 21.0006C14.8918 20.9026 15.9854 20.2821 16.9503 19.3349C17.2398 19.041 17.4971 18.7144 17.7544 18.3878C19.2661 18.5837 20.3597 19.2696 20.3597 19.9881C20.3597 20.9026 18.7515 21.6538 16.8538 21.6538H16.7895Z" fill="#0F8A2A"/>
<path d="M106.237 30.9947C106.237 30.9947 106.012 30.9947 105.947 31.0927C103.278 36.4816 99.4826 40.9888 95.0118 44.3528C93.8539 45.2019 92.6639 45.9858 91.4416 46.7043C91.0557 47.2922 90.5732 47.9128 90.0908 48.5006C88.5147 50.3623 86.3919 52.1913 83.5615 53.7263C88.3218 52.3872 92.8247 49.9704 96.62 46.6063C101.219 42.5891 104.757 37.2002 106.333 31.2233C106.333 31.1253 106.333 31.0274 106.237 30.962V30.9947Z" fill="#BFD730"/>
<path d="M91.4736 46.7369C87.9034 48.7945 84.0437 50.2316 80.0876 50.9828C74.7484 51.9626 69.2163 51.734 64.0057 50.1989C61.7221 49.5131 59.4706 48.5659 57.3478 47.3902C57.2835 47.6841 57.1549 47.978 56.9619 48.272L56.8011 48.5006C56.6402 48.7292 56.4151 48.9252 56.1899 49.0885C58.3449 50.6888 60.6929 51.9626 63.1695 52.9098C68.7016 55.0653 74.7806 55.5226 80.6344 54.4448C81.6315 54.2488 82.6285 54.0202 83.6256 53.7263C86.456 52.1912 88.5788 50.3622 90.1549 48.5006C90.6695 47.9127 91.1198 47.2922 91.5057 46.7043L91.4736 46.7369Z" fill="#0F8A2A"/>
<path d="M91.4739 46.7369C91.088 47.3248 90.6055 47.9454 90.123 48.5333C90.6377 47.9454 91.088 47.3248 91.4739 46.7369Z" fill="#0F8A2A"/>
<path d="M56.5763 45.1366L50.8511 40.4988C49.9505 39.7476 48.664 39.9436 47.9564 40.9234L47.7955 41.152C47.0879 42.1319 47.2488 43.5036 48.1493 44.2548L53.8745 48.8925C54.5499 49.4478 55.4505 49.4804 56.1581 49.0232C56.3833 48.8925 56.6084 48.6966 56.7692 48.4353L56.9301 48.2067C57.123 47.9454 57.2517 47.6514 57.316 47.3248C57.4768 46.5083 57.2195 45.6265 56.5763 45.0713V45.1366Z" fill="#0F8A2A"/>
<path d="M110 32.399C109.807 31.6478 109.389 30.9619 108.81 30.4067C108.263 29.8515 107.556 29.3942 106.784 29.1983C106.591 29.133 106.398 29.1003 106.205 29.0676L105.915 29.0023C105.915 29.0023 105.722 29.0023 105.626 29.0023C105.433 29.0023 105.24 29.0023 105.047 29.0023C104.854 29.0023 104.661 29.0676 104.468 29.0676C104.275 29.0676 104.082 29.133 103.921 29.1983L103.374 29.3616C103.021 29.5249 102.699 29.6882 102.377 29.8841C102.313 29.9168 102.281 29.9821 102.281 30.0474C102.281 30.1454 102.377 30.2108 102.474 30.2108C102.828 30.2108 103.181 30.1128 103.535 30.0801H104.05C104.05 30.0801 104.211 30.0148 104.307 30.0148C104.404 30.0148 104.468 30.0148 104.564 30.0148C104.725 30.0148 104.886 30.0148 105.047 30.0148C105.208 30.0148 105.368 30.0474 105.529 30.0801H105.754L105.98 30.1781C106.14 30.2108 106.301 30.2434 106.43 30.3087C107.041 30.472 107.588 30.7986 108.135 31.1906C108.681 31.5825 109.164 32.0724 109.614 32.595C109.614 32.595 109.711 32.6929 109.807 32.6603C109.904 32.6603 109.968 32.5296 109.936 32.4317L110 32.399Z" fill="#BFD730"/>
</g>
<defs>
<clipPath id="clip0_86_4772">
<rect width="110" height="55" fill="white"/>
</clipPath>
</defs>
</svg>
