<svg width="1440" height="1618" viewBox="0 0 1440 1618" fill="none" xmlns="http://www.w3.org/2000/svg">
<path fill-rule="evenodd" clip-rule="evenodd" d="M727 1618C1173.79 1618 1536 1255.79 1536 809C1536 362.201 1173.79 0 727 0C280.201 0 -82 362.201 -82 809C-82 1255.79 280.201 1618 727 1618ZM727 1520.92C1120.18 1520.92 1438.92 1202.18 1438.92 809C1438.92 415.817 1120.18 97.08 727 97.08C333.817 97.08 15.08 415.817 15.08 809C15.08 1202.18 333.817 1520.92 727 1520.92ZM727 1423.84C1066.57 1423.84 1341.84 1148.57 1341.84 809C1341.84 469.434 1066.57 194.16 727 194.16C387.434 194.16 112.16 469.434 112.16 809C112.16 1148.57 387.434 1423.84 727 1423.84ZM727 1326.76C1012.95 1326.76 1244.76 1094.95 1244.76 809C1244.76 523.049 1012.95 291.24 727 291.24C441.049 291.24 209.24 523.049 209.24 809C209.24 1094.95 441.049 1326.76 727 1326.76ZM1147.68 809C1147.68 1041.34 959.337 1229.68 727 1229.68C494.665 1229.68 306.32 1041.34 306.32 809C306.32 576.665 494.665 388.32 727 388.32C959.337 388.32 1147.68 576.665 1147.68 809ZM1050.6 809C1050.6 987.716 905.716 1132.6 727 1132.6C548.281 1132.6 403.4 987.716 403.4 809C403.4 630.281 548.281 485.4 727 485.4C905.716 485.4 1050.6 630.281 1050.6 809Z" fill="url(#paint0_linear_1_3273)" fill-opacity="0.05"/>
<defs>
<linearGradient id="paint0_linear_1_3273" x1="727" y1="-242.849" x2="727" y2="1531.57" gradientUnits="userSpaceOnUse">
<stop stop-color="#171717"/>
<stop offset="0.846154" stop-color="#171717" stop-opacity="0"/>
</linearGradient>
</defs>
</svg>
