<svg width="34" height="39" viewBox="0 0 34 39" fill="none" xmlns="http://www.w3.org/2000/svg">
<path fill-rule="evenodd" clip-rule="evenodd" d="M32.9125 7C32.9125 3.686 30.2338 1 26.9289 1C21.2265 1 12.686 1 6.98359 1C3.67866 1 1 3.686 1 7C1 11.04 1 16.456 1 21.102C1 27.008 4.45453 32.364 9.8258 34.784C13.5137 36.448 16.9563 38 16.9563 38C16.9563 38 20.3988 36.448 24.0867 34.784C29.458 32.364 32.9125 27.008 32.9125 21.102V7Z" stroke="#0F8A2A" stroke-width="2" stroke-miterlimit="2" stroke-linecap="round" stroke-linejoin="round"/>
<path d="M23.9892 10.5222C22.1252 8.65817 19.6468 7.63159 17.0107 7.63159C14.3746 7.63159 11.8962 8.65817 10.0322 10.5222C8.16818 12.3862 7.1416 14.8646 7.1416 17.5007C7.1416 20.1368 8.16818 22.6152 10.0322 24.4792C11.8962 26.3432 14.3746 27.3698 17.0107 27.3698C19.6468 27.3698 22.1252 26.3432 23.9892 24.4792C25.8532 22.6152 26.8798 20.1368 26.8798 17.5007C26.8798 14.8646 25.8532 12.3862 23.9892 10.5222ZM17.0107 26.2133C14.4328 26.2133 12.1133 25.0875 10.5167 23.3022C11.5065 20.6782 14.0403 18.8114 17.0107 18.8114C15.0945 18.8114 13.5411 17.258 13.5411 15.3418C13.5411 13.4256 15.0945 11.8722 17.0107 11.8722C18.9269 11.8722 20.4803 13.4256 20.4803 15.3418C20.4803 17.258 18.9269 18.8114 17.0107 18.8114C19.9811 18.8114 22.5149 20.6782 23.5047 23.3022C21.9081 25.0875 19.5886 26.2133 17.0107 26.2133Z" fill="#0F8A2A"/>
</svg>
