<svg width="119" height="120" viewBox="0 0 119 120" fill="none" xmlns="http://www.w3.org/2000/svg">
<path d="M101.557 18.3909C90.322 7.15634 75.385 0.969116 59.497 0.969116C43.6089 0.969116 28.6719 7.15634 17.4371 18.3909C6.20284 29.6254 0.015625 44.5624 0.015625 60.4504C0.015625 76.3385 6.20284 91.2755 17.4371 102.51C28.6719 113.745 43.6089 119.932 59.497 119.932C75.385 119.932 90.322 113.745 101.557 102.51C112.791 91.2755 118.978 76.3385 118.978 60.4504C118.978 44.5624 112.791 29.6254 101.557 18.3909ZM59.497 112.961C43.96 112.961 29.98 106.176 20.3573 95.4164C26.3229 79.6011 41.594 68.3503 59.497 68.3503C47.9478 68.3503 38.5855 58.988 38.5855 47.4389C38.5855 35.8898 47.9478 26.5275 59.497 26.5275C71.0461 26.5275 80.4084 35.8898 80.4084 47.4389C80.4084 58.988 71.0461 68.3503 59.497 68.3503C77.3999 68.3503 92.671 79.6011 98.6366 95.4164C89.0139 106.176 75.0339 112.961 59.497 112.961Z" fill="#0F8A2A"/>
</svg>
