<svg width="267" height="276" viewBox="0 0 267 276" fill="none" xmlns="http://www.w3.org/2000/svg">
<mask id="mask0_16_1527" style="mask-type:luminance" maskUnits="userSpaceOnUse" x="0" y="0" width="267" height="276">
<path d="M266.246 0H0.527344V275.099H266.246V0Z" fill="white"/>
</mask>
<g mask="url(#mask0_16_1527)">
<path d="M135.266 182.432L185.934 146.341C192.182 141.917 197.281 136.061 200.805 129.263C204.329 122.465 206.176 114.921 206.191 107.263V33.0106C206.192 32.5638 206.062 32.1266 205.817 31.7527C205.573 31.3788 205.225 31.0845 204.816 30.906L133.795 0.190634C133.506 0.0643358 133.193 -0.000854492 132.878 -0.000854492C132.562 -0.000854492 132.25 0.0643358 131.961 0.190634L60.9418 30.9091C60.5325 31.0876 60.1843 31.3819 59.9399 31.7558C59.6956 32.1297 59.5657 32.5669 59.5664 33.0137V107.291C59.5816 114.95 61.4289 122.494 64.9538 129.292C68.4788 136.091 73.5789 141.946 79.828 146.369L130.496 182.46C131.196 182.951 132.031 183.212 132.885 183.207C133.74 183.202 134.572 182.931 135.266 182.432Z" fill="#219E13"/>
<path d="M90.4529 131.398C86.5915 128.665 83.4377 125.049 81.2533 120.852C79.0689 116.654 77.9171 111.995 77.8936 107.263V43.5662L132.876 19.8032L187.859 43.5662V107.291C187.836 112.023 186.685 116.682 184.5 120.88C182.316 125.078 179.162 128.693 175.3 131.426L132.875 161.646L90.4529 131.398Z" fill="#56C646"/>
<path d="M122.39 119.67C121.398 119.67 120.433 119.348 119.64 118.753L98.6958 103.032C98.2033 102.675 97.7868 102.223 97.4704 101.703C97.1541 101.184 96.9443 100.606 96.8533 100.004C96.7623 99.4027 96.792 98.7888 96.9404 98.1987C97.0889 97.6085 97.3533 97.0539 97.7182 96.567C98.083 96.0801 98.5411 95.6708 99.0657 95.3628C99.5903 95.0549 100.171 94.8545 100.774 94.7733C101.376 94.6922 101.989 94.7319 102.576 94.8902C103.164 95.0484 103.714 95.3221 104.194 95.6951L121.606 108.754L160.723 59.8236C161.483 58.8733 162.589 58.264 163.798 58.1297C165.006 57.9954 166.219 58.3472 167.169 59.1076C168.119 59.868 168.727 60.9748 168.862 62.1844C168.996 63.3941 168.644 64.6075 167.884 65.5578L125.987 117.941C125.557 118.482 125.011 118.92 124.388 119.22C123.765 119.52 123.082 119.675 122.391 119.674" fill="white"/>
<path d="M61.523 195.954L40.5923 175.006C36.1028 170.513 32.5105 165.206 30.0078 159.367L19.7531 135.438C19.2212 134.234 18.4575 133.146 17.5056 132.237C16.5536 131.328 15.4321 130.616 14.205 130.141C12.9779 129.666 11.6693 129.437 10.3539 129.468C9.03853 129.499 7.74207 129.788 6.5386 130.321C5.33512 130.853 4.24819 131.617 3.33986 132.57C2.43153 133.522 1.7196 134.644 1.2447 135.872C0.769807 137.1 0.541252 138.409 0.572088 139.726C0.602924 141.042 0.892546 142.339 1.42442 143.543L19.3814 183.076C21.5857 187.922 24.6426 192.333 28.4063 196.097L61.5292 229.25H105.895V216.133C106.046 206.315 102.862 196.737 96.8638 188.966C93.5103 184.539 88.9428 181.183 83.7175 179.306C73.5428 175.012 64.1641 169.032 55.9752 161.619C52.8218 158.983 48.7955 157.627 44.6913 157.817C40.5871 158.007 36.7034 159.73 33.807 162.646" fill="#FDD7AD"/>
<path d="M205.242 195.954L226.177 175.006C230.666 170.513 234.259 165.206 236.761 159.367L247.021 135.438C247.543 134.22 248.302 133.118 249.253 132.195C250.204 131.272 251.329 130.547 252.562 130.062C253.795 129.577 255.112 129.342 256.436 129.369C257.76 129.397 259.066 129.687 260.278 130.223C261.49 130.759 262.583 131.53 263.495 132.491C264.407 133.453 265.119 134.586 265.591 135.825C266.062 137.063 266.284 138.383 266.242 139.708C266.2 141.033 265.896 142.337 265.348 143.543L247.391 183.075C245.189 187.92 242.134 192.33 238.374 196.094L205.242 229.247H160.879V216.129C160.73 206.311 163.918 196.733 169.919 188.963C173.273 184.536 177.84 181.18 183.066 179.303C193.234 175.007 202.606 169.027 210.789 161.616C213.945 158.982 217.971 157.626 222.075 157.817C226.18 158.007 230.064 159.729 232.962 162.643" fill="#FDD7AD"/>
<path d="M206.699 275.099H156.296C155.081 275.099 153.916 274.616 153.057 273.756C152.198 272.896 151.715 271.731 151.715 270.515V233.834C151.715 232.618 152.198 231.452 153.057 230.593C153.916 229.733 155.081 229.25 156.296 229.25H206.699C207.301 229.25 207.897 229.369 208.452 229.599C209.008 229.829 209.513 230.167 209.939 230.593C210.364 231.018 210.702 231.524 210.932 232.08C211.162 232.636 211.281 233.232 211.281 233.834V270.516C211.281 271.118 211.162 271.714 210.932 272.271C210.702 272.827 210.364 273.332 209.939 273.758C209.513 274.184 209.008 274.521 208.452 274.752C207.897 274.982 207.301 275.101 206.699 275.101" fill="#219E13"/>
<path d="M174.625 256.759H170.044C168.829 256.759 167.663 256.276 166.804 255.416C165.945 254.556 165.462 253.39 165.462 252.174C165.462 250.958 165.945 249.792 166.804 248.932C167.663 248.072 168.829 247.589 170.044 247.589H174.625C175.841 247.589 177.006 248.072 177.866 248.932C178.725 249.792 179.208 250.958 179.208 252.174C179.208 253.39 178.725 254.556 177.866 255.416C177.006 256.276 175.841 256.759 174.625 256.759Z" fill="#2C3E50"/>
<path d="M60.0706 229.25H110.474C111.689 229.25 112.854 229.734 113.713 230.593C114.572 231.453 115.055 232.619 115.055 233.834V270.516C115.055 271.732 114.572 272.898 113.713 273.758C112.854 274.618 111.689 275.101 110.474 275.101H60.0706C58.8556 275.101 57.6903 274.618 56.8311 273.758C55.9719 272.898 55.4893 271.732 55.4893 270.516V233.834C55.4893 232.618 55.9719 231.452 56.8311 230.593C57.6903 229.733 58.8556 229.25 60.0706 229.25Z" fill="#219E13"/>
<path d="M96.7319 256.759H92.1505C90.9353 256.759 89.7698 256.276 88.9105 255.416C88.0511 254.556 87.5684 253.39 87.5684 252.174C87.5684 250.958 88.0511 249.792 88.9105 248.932C89.7698 248.072 90.9353 247.589 92.1505 247.589H96.7319C97.9472 247.589 99.1127 248.072 99.972 248.932C100.831 249.792 101.314 250.958 101.314 252.174C101.314 253.39 100.831 254.556 99.972 255.416C99.1127 256.276 97.9472 256.759 96.7319 256.759Z" fill="#2C3E50"/>
<path d="M68.8724 197.109C68.0038 197.961 66.8361 198.438 65.6199 198.438C64.4037 198.438 63.2359 197.961 62.3674 197.109L41.4274 176.156C38.3799 173.104 35.7035 169.703 33.4541 166.023C33.0422 165.335 32.6797 164.693 32.3096 164.008L34.0504 162.404C35.6916 160.75 37.6789 159.479 39.8693 158.685C41.9839 162.741 44.7033 166.451 47.934 169.688L68.8739 190.595C69.732 191.461 70.2134 192.63 70.2134 193.85C70.2134 195.069 69.732 196.239 68.8739 197.104" fill="#F09372"/>
<path d="M198.258 197.109C199.127 197.961 200.294 198.438 201.511 198.438C202.727 198.438 203.895 197.961 204.763 197.109L225.703 176.156C228.751 173.104 231.427 169.703 233.676 166.023C234.088 165.335 234.451 164.693 234.821 164.008L233.08 162.404C231.439 160.75 229.452 159.479 227.261 158.685C225.147 162.741 222.427 166.451 219.196 169.688L198.257 190.595C197.398 191.461 196.917 192.63 196.917 193.85C196.917 195.069 197.398 196.239 198.257 197.104" fill="#F09372"/>
</g>
</svg>
